<svg xmlns="http://www.w3.org/2000/svg" width="16" height="20" viewBox="0 0 16 20" fill="none" aria-hidden="true">
  <path d="M11.5156 2.21045L13.6885 4.26807L13.9297 4.49658V8.17139H14.5723L14.7969 8.38916L15.7598 9.32471L15.9941 9.55127V18.6196L15.7598 18.8472L14.7969 19.7817L14.5723 20.0005H1.42188L1.19727 19.7817L0.234375 18.8472L0 18.6196V9.55127L0.234375 9.32471L1.19727 8.38916L1.42188 8.17139H2.06445V4.49658L2.30566 4.26807L4.47852 2.21045L4.70215 1.99951H11.292L11.5156 2.21045ZM1.54297 10.2036V17.9663L2.04785 18.4575H13.9463L14.4512 17.9663V10.2036L13.9463 9.71436H2.04785L1.54297 10.2036ZM3.60742 5.15967V8.17139H12.3867V5.15967L10.6777 3.54248H5.31641L3.60742 5.15967Z" fill="#868686"/>
</svg>
