<svg xmlns="http://www.w3.org/2000/svg" width="22" height="20" viewBox="0 0 22 20" fill="none" aria-hidden="true">
  <path d="M13.5635 2.32178L21.2861 8.32861L21.4521 8.45752V9.73486L21.2861 9.86377L13.5635 15.8706L13.3506 16.0366L12.251 15.4868L12.0137 15.3677V12.519C9.39672 12.53 4.30876 13.9088 2.11523 19.5493L2.08301 19.6333L2.01953 19.6968C1.63592 20.0801 1.10554 20.0404 0.751953 19.8989C0.566628 19.8247 0.390337 19.7108 0.254883 19.5649C0.122701 19.4226 6.83608e-05 19.2155 0 18.9644C2.4863e-05 13.6913 2.02203 10.3451 4.61719 8.32861C7.02626 6.45689 9.89583 5.75529 12.0137 5.67236V2.90869L12.2275 2.78467L13.0859 2.28955L13.3359 2.14502L13.5635 2.32178Z" fill="#88A4A0"/>
</svg>
