<svg width="18" height="20" viewBox="0 0 18 20" fill="none" xmlns="http://www.w3.org/2000/svg">
  <path d="M15.0254 0.204102L16.0537 1.27148L16.2402 1.46484V13.2412L16.7031 13.2881C17.3159 13.3501 17.7822 13.8665 17.7822 14.4824V15.4619C17.7822 15.666 17.73 15.8666 17.6309 16.0449L17.1787 16.8594C17.0709 17.053 16.9109 17.2136 16.7178 17.3223L16.0225 17.7129C15.9293 17.7653 15.8294 17.8041 15.7266 17.8301V19.0693L15.54 19.2627L15.0254 19.7959L14.8291 20H1.92578L1.72949 19.7959L0.186523 18.1963L0 18.002V3.06445L0.186523 2.87109L1.21484 1.80371L1.41211 1.59961H2.57031V1.46484L2.75684 1.27148L3.78516 0.204102L3.98242 0H14.8291L15.0254 0.204102ZM1.33398 3.60156V17.4639L2.49316 18.667H14.2617L14.3926 18.5312V17.8555L5.86719 17.0557L5.02832 17.29C4.92391 17.3191 4.81539 17.3339 4.70703 17.334H4.06348C3.51642 17.3339 3.03824 16.9632 2.90137 16.4336L2.6084 15.2988C2.58318 15.201 2.57032 15.1001 2.57031 14.999V2.93359H1.97852L1.33398 3.60156ZM7.20508 14.9287C7.20503 15.1327 7.15289 15.3334 7.05371 15.5117L6.88574 15.8125L14.5771 16.5332H15.4004L16.0303 16.1787L16.4492 15.4268V14.6025L7.20508 13.6709V14.9287ZM3.9043 2.00195V14.9844L4.16602 16H4.68848L5.35938 15.8135L5.87207 14.8926V13.5234C5.87207 12.8574 6.41158 12.3279 7.06152 12.3232L7.19238 12.3291L14.9072 13.1064V2.00195L14.2627 1.33398H4.54883L3.9043 2.00195ZM12.4053 9.14941C12.6536 9.14955 12.8553 9.35134 12.8555 9.59961C12.8555 9.84806 12.6537 10.0497 12.4053 10.0498H6.40527C6.15675 10.0498 5.95508 9.84814 5.95508 9.59961C5.95529 9.35126 6.15688 9.14941 6.40527 9.14941H12.4053ZM12.4053 6.34961C12.6536 6.34974 12.8554 6.55145 12.8555 6.7998C12.8555 7.04825 12.6537 7.24987 12.4053 7.25H6.40527C6.15675 7.25 5.95508 7.04833 5.95508 6.7998C5.95518 6.55137 6.15681 6.34961 6.40527 6.34961H12.4053ZM12.4053 3.5498C12.6537 3.54994 12.8555 3.75155 12.8555 4C12.8555 4.24845 12.6537 4.45006 12.4053 4.4502H6.40527C6.15675 4.4502 5.95508 4.24853 5.95508 4C5.95508 3.75147 6.15675 3.5498 6.40527 3.5498H12.4053Z" fill="#88A4A0"/>
</svg>
