<svg xmlns="http://www.w3.org/2000/svg" width="20" height="22" viewBox="0 0 20 22" fill="none" aria-hidden="true">
  <path d="M10.127 1.87695L17.999 6.42188L18.1436 6.50488L18.2275 6.65039L18.71 7.48535C18.7925 7.62832 18.81 7.79029 18.7754 7.93945L18.793 7.95703V16.6855L18.71 16.8301L18.292 17.5537L18.208 17.6982L18.0635 17.7822L10.5439 22.123L10.3994 22.207H8.77148V22.1787L8.68652 22.1338L0.814453 17.957L0.65625 17.873L0.566406 17.7178L0.0839844 16.8818L0 16.7373V7.33496L0.114258 7.2207C0.128107 7.16877 0.145708 7.11713 0.173828 7.06836C0.261177 6.91714 0.401915 6.81579 0.558594 6.77539L1.01855 6.31738L1.07617 6.25879L1.14746 6.21777L8.66699 1.87695L8.81152 1.79297H9.98242L10.127 1.87695ZM1.25 16.4023L1.55859 16.9375L8.77148 20.7637V12.7539L1.25 8.41113V16.4023ZM1.8457 7.25684L1.81055 7.29199L9.55762 11.7637L9.79004 11.5332L9.85156 11.4707L9.92871 11.4287L17.1875 7.39551L9.64746 3.04297H9.14648L1.8457 7.25684Z" fill="#88A4A0"/>
</svg>
