<svg width="27.546" height="57.4063" viewBox="-2 -2 27.546 57.4063" fill="none" xmlns="http://www.w3.org/2000/svg">
<path id="Vector 4152" d="M0 50.4931C0 52.102 1.30428 53.4063 2.9132 53.4063C4.52211 53.4063 5.8264 52.102 5.8264 50.4931C5.8264 48.8842 4.52211 47.5799 2.9132 47.5799C1.30428 47.5799 0 48.8842 0 50.4931ZM2.9132 3.15363V2.60741H2.36697V3.15363H2.9132ZM23.546 3.15363L20.3924 0L17.2388 3.15363L20.3924 6.30726L23.546 3.15363ZM2.9132 50.4931H3.45942V3.15363H2.9132H2.36697V50.4931H2.9132ZM2.9132 3.15363V3.69985H20.3924V3.15363V2.60741H2.9132V3.15363Z" fill="var(--stroke-0, #6DDA48)"/>
</svg>
