<svg width="26" height="26" viewBox="0 0 26 26" fill="none" xmlns="http://www.w3.org/2000/svg">
<path d="M5.58619 10.5285V6.57445C5.58619 6.02851 6.02876 5.58594 6.5747 5.58594H10.5288" stroke="#ADD1C4" stroke-width="1.5" stroke-linecap="round"/>
<path d="M15.4714 5.58594L19.4254 5.58594C19.9714 5.58594 20.4139 6.02851 20.4139 6.57445L20.4139 10.5285" stroke="#ADD1C4" stroke-width="1.5" stroke-linecap="round"/>
<path d="M20.4139 15.4715L20.4139 19.4255C20.4139 19.9715 19.9714 20.4141 19.4254 20.4141L15.4714 20.4141" stroke="#ADD1C4" stroke-width="1.5" stroke-linecap="round"/>
<path d="M10.5289 20.4141L6.57483 20.4141C6.02889 20.4141 5.58631 19.9715 5.58631 19.4255L5.58632 15.4715" stroke="#ADD1C4" stroke-width="1.5" stroke-linecap="round"/>
<path d="M0.643564 8.88119V2.29109C0.643564 1.38119 1.38119 0.643564 2.29109 0.643564H8.88119" stroke="#ADD1C4" stroke-width="1.25" stroke-linecap="round"/>
<path d="M17.1188 0.643564L23.7089 0.643564C24.6188 0.643564 25.3564 1.38119 25.3564 2.29109L25.3564 8.88119" stroke="#ADD1C4" stroke-width="1.25" stroke-linecap="round"/>
<path d="M8.88119 25.3564L2.29109 25.3564C1.38119 25.3564 0.643564 24.6188 0.643564 23.7089L0.643564 17.1188" stroke="#ADD1C4" stroke-width="1.25" stroke-linecap="round"/>
<path d="M25.3564 17.1188L25.3564 23.7089C25.3564 24.6188 24.6188 25.3564 23.7089 25.3564L17.1188 25.3564" stroke="#ADD1C4" stroke-width="1.25" stroke-linecap="round"/>
</svg>
