<svg width="26" height="26" viewBox="0 0 26 26" fill="none" xmlns="http://www.w3.org/2000/svg">
<path d="M0.643558 8.8811V2.29107C0.643558 1.38117 1.38117 0.643558 2.29107 0.643558H8.8811" stroke="#ADD1C4" stroke-width="1.25" stroke-linecap="round"/>
<path d="M17.1188 0.643558L23.7088 0.643558C24.6187 0.643558 25.3563 1.38117 25.3563 2.29107L25.3563 8.8811" stroke="#ADD1C4" stroke-width="1.25" stroke-linecap="round"/>
<path d="M8.88135 25.3562L2.29132 25.3562C1.38142 25.3562 0.643809 24.6186 0.643809 23.7087L0.643809 17.1186" stroke="#ADD1C4" stroke-width="1.25" stroke-linecap="round"/>
<path d="M25.3564 17.1186L25.3564 23.7087C25.3564 24.6186 24.6188 25.3562 23.7089 25.3562L17.1189 25.3562" stroke="#ADD1C4" stroke-width="1.25" stroke-linecap="round"/>
<path d="M16.3745 11.5258C15.3509 11.5258 14.5209 10.6957 14.5209 9.67213L14.5209 6.66018C14.5209 6.5465 14.6134 6.45402 14.7271 6.45397C14.8404 6.45428 14.9323 6.54615 14.9326 6.65946L14.9318 9.67213C14.9318 9.99577 15.0396 10.2939 15.2198 10.5346L20.9878 4.76668C21.0681 4.68635 21.1988 4.68653 21.2793 4.76668C21.3597 4.84711 21.3597 4.97778 21.2793 5.05821L15.5113 10.8261C15.752 11.0064 16.0502 11.1141 16.3738 11.1141L19.3865 11.1134C19.5001 11.1135 19.5926 11.206 19.5927 11.3196C19.5927 11.4333 19.5002 11.5257 19.3865 11.5258H16.3745Z" fill="#ADD1C4"/>
<path d="M16.3745 11.5258L16.3745 11.9377L16.3745 11.9377L16.3745 11.5258ZM14.5209 9.67213L14.9327 9.67213L14.5209 9.67213ZM14.5209 6.66018L14.109 6.66001V6.66018H14.5209ZM14.7271 6.45397L14.7282 6.0421L14.7269 6.0421L14.7271 6.45397ZM14.9326 6.65946L15.3444 6.65956L15.3444 6.65847L14.9326 6.65946ZM14.9318 9.67213L14.52 9.67204V9.67213L14.9318 9.67213ZM15.2198 10.5346L14.8901 10.7815L15.175 11.162L15.5111 10.8259L15.2198 10.5346ZM21.2793 4.76668L21.5705 4.47544L21.57 4.47491L21.2793 4.76668ZM15.5113 10.8261L15.2201 10.5349L14.884 10.871L15.2645 11.1558L15.5113 10.8261ZM16.3738 11.1141L16.3738 11.526L16.3739 11.526L16.3738 11.1141ZM19.3865 11.1134L19.3868 10.7015L19.3864 10.7015L19.3865 11.1134ZM19.5927 11.3196L20.0046 11.3196L20.0046 11.3192L19.5927 11.3196ZM19.3865 11.5258L19.3865 11.9377L19.3868 11.9377L19.3865 11.5258ZM16.3745 11.5258L16.3746 11.1139C15.5784 11.1139 14.9327 10.4682 14.9327 9.67213L14.5209 9.67213L14.109 9.67213C14.109 10.9232 15.1235 11.9376 16.3745 11.9377L16.3745 11.5258ZM14.5209 9.67213L14.9327 9.67213L14.9327 6.66018H14.5209H14.109L14.109 9.67213L14.5209 9.67213ZM14.5209 6.66018L14.9327 6.66034C14.9327 6.77401 14.8409 6.86581 14.7272 6.86585L14.7271 6.45397L14.7269 6.0421C14.3859 6.04223 14.1091 6.319 14.109 6.66001L14.5209 6.66018ZM14.7271 6.45397L14.726 6.86585C14.6128 6.86554 14.521 6.77396 14.5207 6.66046L14.9326 6.65946L15.3444 6.65847C15.3436 6.31834 15.068 6.04302 14.7282 6.0421L14.7271 6.45397ZM14.9326 6.65946L14.5207 6.65937L14.52 9.67204L14.9318 9.67213L15.3437 9.67223L15.3444 6.65956L14.9326 6.65946ZM14.9318 9.67213L14.52 9.67213C14.52 10.0889 14.6591 10.473 14.8901 10.7815L15.2198 10.5346L15.5495 10.2878C15.4201 10.1149 15.3437 9.90261 15.3437 9.67213L14.9318 9.67213ZM15.2198 10.5346L15.5111 10.8259L21.279 5.05792L20.9878 4.76668L20.6965 4.47544L14.9286 10.2434L15.2198 10.5346ZM20.9878 4.76668L21.279 5.05792C21.198 5.13897 21.0683 5.13791 20.9886 5.05845L21.2793 4.76668L21.57 4.47491C21.3293 4.23515 20.9382 4.23373 20.6965 4.47544L20.9878 4.76668ZM21.2793 4.76668L20.988 5.05792C20.9076 4.9775 20.9076 4.84739 20.988 4.76697L21.2793 5.05821L21.5705 5.34945C21.8118 5.10818 21.8118 4.71671 21.5705 4.47544L21.2793 4.76668ZM21.2793 5.05821L20.988 4.76697L15.2201 10.5349L15.5113 10.8261L15.8026 11.1174L21.5705 5.34945L21.2793 5.05821ZM15.5113 10.8261L15.2645 11.1558C15.5731 11.3869 15.957 11.5259 16.3738 11.526L16.3738 11.1141L16.3739 10.7022C16.1433 10.7022 15.931 10.6258 15.7582 10.4965L15.5113 10.8261ZM16.3738 11.1141L16.3739 11.526L19.3866 11.5253L19.3865 11.1134L19.3864 10.7015L16.3737 10.7022L16.3738 11.1141ZM19.3865 11.1134L19.3862 11.5253C19.2724 11.5252 19.1809 11.4334 19.1808 11.32L19.5927 11.3196L20.0046 11.3192C20.0042 10.9786 19.7278 10.7018 19.3868 10.7015L19.3865 11.1134ZM19.5927 11.3196L19.1808 11.3196C19.1808 11.2055 19.2729 11.114 19.3862 11.1139L19.3865 11.5258L19.3868 11.9377C19.7274 11.9375 20.0046 11.661 20.0046 11.3196L19.5927 11.3196ZM19.3865 11.5258L19.3865 11.1139L16.3745 11.1139L16.3745 11.5258L16.3745 11.9377L19.3865 11.9377L19.3865 11.5258Z" fill="#739C8D"/>
<path d="M9.25994 14.5207C10.2835 14.5208 11.1136 15.3508 11.1136 16.3744L11.1136 19.3863C11.1136 19.5 11.021 19.5924 10.9074 19.5925C10.7941 19.5922 10.7022 19.5004 10.7019 19.387L10.7026 16.3744C10.7026 16.0508 10.5948 15.7525 10.4147 15.5119L4.64672 21.2798C4.56642 21.3601 4.43565 21.3599 4.3552 21.2798C4.27477 21.1994 4.27477 21.0687 4.3552 20.9883L10.1231 15.2204C9.88246 15.0401 9.58431 14.9325 9.26065 14.9324L6.24798 14.9331C6.13439 14.933 6.0419 14.8405 6.04178 14.7269C6.04178 14.6132 6.13431 14.5208 6.24798 14.5207H9.25994Z" fill="#ADD1C4"/>
<path d="M9.25994 14.5207L9.25999 14.1088L9.25994 14.1088L9.25994 14.5207ZM11.1136 16.3744L10.7017 16.3744L11.1136 16.3744ZM11.1136 19.3863L11.5255 19.3865L11.5255 19.3863H11.1136ZM10.9074 19.5925L10.9063 20.0044L10.9079 20.0044L10.9074 19.5925ZM10.7019 19.387L10.29 19.3869L10.29 19.3881L10.7019 19.387ZM10.7026 16.3744L11.1145 16.3745V16.3744L10.7026 16.3744ZM10.4147 15.5119L10.7444 15.2651L10.4595 14.8845L10.1234 15.2206L10.4147 15.5119ZM4.3552 21.2798L4.06396 21.5711L4.06464 21.5717L4.3552 21.2798ZM10.1231 15.2204L10.4144 15.5116L10.7504 15.1756L10.37 14.8907L10.1231 15.2204ZM9.26065 14.9324L9.26076 14.5205L9.26055 14.5205L9.26065 14.9324ZM6.24798 14.9331L6.2477 15.345L6.24808 15.345L6.24798 14.9331ZM6.04178 14.7269L5.6299 14.7269L5.6299 14.7274L6.04178 14.7269ZM6.24798 14.5207L6.24798 14.1088L6.2477 14.1088L6.24798 14.5207ZM9.25994 14.5207L9.25989 14.9326C10.056 14.9327 10.7017 15.5783 10.7017 16.3744L11.1136 16.3744L11.5255 16.3744C11.5255 15.1233 10.5109 14.109 9.25999 14.1088L9.25994 14.5207ZM11.1136 16.3744L10.7017 16.3744L10.7017 19.3863H11.1136H11.5255L11.5255 16.3744L11.1136 16.3744ZM11.1136 19.3863L10.7017 19.3862C10.7018 19.2722 10.7937 19.1808 10.907 19.1807L10.9074 19.5925L10.9079 20.0044C11.2483 20.004 11.5253 19.7277 11.5255 19.3865L11.1136 19.3863ZM10.9074 19.5925L10.9085 19.1807C11.0217 19.181 11.1135 19.2726 11.1138 19.386L10.7019 19.387L10.29 19.3881C10.2909 19.7282 10.5665 20.0035 10.9063 20.0044L10.9074 19.5925ZM10.7019 19.387L11.1138 19.3871L11.1145 16.3745L10.7026 16.3744L10.2908 16.3743L10.29 19.3869L10.7019 19.387ZM10.7026 16.3744L11.1145 16.3744C11.1145 15.9576 10.9753 15.5735 10.7444 15.2651L10.4147 15.5119L10.0849 15.7587C10.2143 15.9316 10.2908 16.1439 10.2908 16.3744L10.7026 16.3744ZM10.4147 15.5119L10.1234 15.2206L4.35548 20.9886L4.64672 21.2798L4.93796 21.5711L10.7059 15.8031L10.4147 15.5119ZM4.64672 21.2798L4.35548 20.9886C4.4367 20.9074 4.5662 20.9087 4.64575 20.9879L4.3552 21.2798L4.06464 21.5717C4.3051 21.8111 4.69613 21.8129 4.93796 21.5711L4.64672 21.2798ZM4.3552 21.2798L4.64644 20.9886C4.72686 21.069 4.72686 21.1991 4.64644 21.2795L4.3552 20.9883L4.06396 20.6971C3.82268 20.9383 3.82268 21.3298 4.06396 21.5711L4.3552 21.2798ZM4.3552 20.9883L4.64644 21.2795L10.4144 15.5116L10.1231 15.2204L9.8319 14.9291L4.06396 20.6971L4.3552 20.9883ZM10.1231 15.2204L10.37 14.8907C10.0614 14.6595 9.67738 14.5206 9.26076 14.5205L9.26065 14.9324L9.26054 15.3443C9.49123 15.3443 9.70353 15.4207 9.87623 15.55L10.1231 15.2204ZM9.26065 14.9324L9.26055 14.5205L6.24788 14.5212L6.24798 14.9331L6.24808 15.345L9.26075 15.3443L9.26065 14.9324ZM6.24798 14.9331L6.24826 14.5212C6.36209 14.5213 6.45353 14.6131 6.45366 14.7264L6.04178 14.7269L5.6299 14.7274C5.63028 15.0679 5.90668 15.3447 6.2477 15.345L6.24798 14.9331ZM6.04178 14.7269L6.45366 14.7269C6.45366 14.841 6.36157 14.9325 6.24826 14.9326L6.24798 14.5207L6.2477 14.1088C5.90705 14.1088 5.6299 14.3855 5.6299 14.7269L6.04178 14.7269ZM6.24798 14.5207L6.24798 14.9326L9.25994 14.9326L9.25994 14.5207L9.25994 14.1088L6.24798 14.1088L6.24798 14.5207Z" fill="#739C8D"/>
</svg>
