<svg width="119" height="30" viewBox="0 0 119 30" fill="none" xmlns="http://www.w3.org/2000/svg">
<path opacity="0.9" d="M13.5635 7.32178L21.2861 13.3286L21.4521 13.4575V14.7349L21.2861 14.8638L13.5635 20.8706L13.3506 21.0366L12.251 20.4868L12.0137 20.3677V17.519C9.39672 17.53 4.30876 18.9088 2.11523 24.5493L2.08301 24.6333L2.01953 24.6968C1.63592 25.0801 1.10554 25.0404 0.751953 24.8989C0.566628 24.8247 0.390337 24.7108 0.254883 24.5649C0.122701 24.4226 6.83608e-05 24.2155 0 23.9644C2.4863e-05 18.6913 2.02203 15.3451 4.61719 13.3286C7.02626 11.4569 9.89583 10.7553 12.0137 10.6724V7.90869L12.2275 7.78467L13.0859 7.28955L13.3359 7.14502L13.5635 7.32178Z" fill="#88A4A0"/>
<path d="M33.2791 23V7.523H43.2541V9.287H35.1901V14.285H42.2671V16.028H35.1901V23H33.2791ZM45.6104 23L43.4264 20.795V12.017H45.2744L45.2534 20.354L46.3874 21.53H49.1174L51.2804 19.367V12.017H53.1284V23H51.2804V21.299L49.6004 23H45.6104ZM55.7139 23V7.523H57.5619V23H55.7139ZM60.1444 23V7.523H61.9924V23H60.1444ZM68.5162 23V21.236H76.1392L77.2732 20.081V16.994L76.1392 15.839H70.1542L67.9702 13.655V9.728L70.1542 7.523H78.3862V9.287H71.0152L69.8602 10.442L69.8812 13.004L71.0152 14.159H77.0002L79.1842 16.364V20.795L77.0002 23H68.5162ZM83.4304 23L81.4984 21.089V13.487H80.3434V12.017H81.5404L82.0024 9.203H83.3464V12.017H85.6774V13.487H83.3464V20.438L84.3334 21.467H86.1604V23H83.4304ZM89.5196 23L87.3146 20.795V14.222L89.5196 12.017H94.7276L96.9326 14.222V20.795L94.7276 23H89.5196ZM90.3176 21.53H93.9296L95.0846 20.375L95.0636 14.642L93.9296 13.487H90.3176L89.1626 14.642V20.375L90.3176 21.53ZM99.2774 23V12.017H101.125V13.991L103.036 12.017H105.85V13.865H103.12L101.125 15.923V23H99.2774ZM109.248 26.927L111.222 22.244H110.445L105.93 12.017H107.967L111.495 20.417H111.978L115.233 12.017H117.249L111.117 26.927H109.248Z" fill="black"/>
</svg>
