<svg width="113" height="30" viewBox="0 0 113 30" fill="none" xmlns="http://www.w3.org/2000/svg">
<path d="M11.5156 6.21045L13.6885 8.26807L13.9297 8.49658V12.1714H14.5723L14.7969 12.3892L15.7598 13.3247L15.9941 13.5513V22.6196L15.7598 22.8472L14.7969 23.7817L14.5723 24.0005H1.42188L1.19727 23.7817L0.234375 22.8472L0 22.6196V13.5513L0.234375 13.3247L1.19727 12.3892L1.42188 12.1714H2.06445V8.49658L2.30566 8.26807L4.47852 6.21045L4.70215 5.99951H11.292L11.5156 6.21045ZM1.54297 14.2036V21.9663L2.04785 22.4575H13.9463L14.4512 21.9663V14.2036L13.9463 13.7144H2.04785L1.54297 14.2036ZM3.60742 9.15967V12.1714H12.3867V9.15967L10.6777 7.54248H5.31641L3.60742 9.15967Z" fill="#868686"/>
<path d="M27.8211 23V7.523H37.7961V9.287H29.7321V14.285H36.8091V16.028H29.7321V23H27.8211ZM40.1524 23L37.9684 20.795V12.017H39.8164L39.7954 20.354L40.9294 21.53H43.6594L45.8224 19.367V12.017H47.6704V23H45.8224V21.299L44.1424 23H40.1524ZM50.2559 23V7.523H52.1039V23H50.2559ZM54.6864 23V7.523H56.5344V23H54.6864ZM63.0582 23V21.236H70.6812L71.8152 20.081V16.994L70.6812 15.839H64.6962L62.5122 13.655V9.728L64.6962 7.523H72.9282V9.287H65.5572L64.4022 10.442L64.4232 13.004L65.5572 14.159H71.5422L73.7262 16.364V20.795L71.5422 23H63.0582ZM77.9724 23L76.0404 21.089V13.487H74.8854V12.017H76.0824L76.5444 9.203H77.8884V12.017H80.2194V13.487H77.8884V20.438L78.8754 21.467H80.7024V23H77.9724ZM84.0616 23L81.8566 20.795V14.222L84.0616 12.017H89.2696L91.4746 14.222V20.795L89.2696 23H84.0616ZM84.8596 21.53H88.4716L89.6266 20.375L89.6056 14.642L88.4716 13.487H84.8596L83.7046 14.642V20.375L84.8596 21.53ZM93.8194 23V12.017H95.6674V13.991L97.5784 12.017H100.392V13.865H97.6624L95.6674 15.923V23H93.8194ZM103.79 26.927L105.764 22.244H104.987L100.472 12.017H102.509L106.037 20.417H106.52L109.775 12.017H111.791L105.659 26.927H103.79Z" fill="black"/>
</svg>
