<svg width="26" height="26" viewBox="0 0 26 26" fill="none" xmlns="http://www.w3.org/2000/svg">
<path d="M0.643813 8.88115V2.29108C0.643813 1.38118 1.38143 0.643561 2.29133 0.643561H8.8814" stroke="#ADD1C4" stroke-width="1.25" stroke-linecap="round"/>
<path d="M17.1189 0.643561L23.7089 0.643561C24.6188 0.643561 25.3564 1.38118 25.3564 2.29108L25.3564 8.88115" stroke="#ADD1C4" stroke-width="1.25" stroke-linecap="round"/>
<path d="M8.88115 25.3563L2.29108 25.3563C1.38118 25.3563 0.643561 24.6187 0.643561 23.7088L0.643561 17.1187" stroke="#ADD1C4" stroke-width="1.25" stroke-linecap="round"/>
<path d="M25.3563 17.1187L25.3563 23.7088C25.3563 24.6187 24.6187 25.3563 23.7088 25.3563L17.1187 25.3563" stroke="#ADD1C4" stroke-width="1.25" stroke-linecap="round"/>
<path d="M19.969 4.22379C20.9925 4.22389 21.8227 5.0539 21.8227 6.07747V9.08945C21.8225 9.20297 21.73 9.29554 21.6165 9.29565C21.5032 9.29534 21.4114 9.20336 21.411 9.09016L21.4117 6.07747C21.4117 5.75356 21.3035 5.45505 21.123 5.21427L15.355 10.9822C15.2746 11.0627 15.1439 11.0627 15.0635 10.9822C14.9834 10.9018 14.9832 10.771 15.0635 10.6907L20.8315 4.92274C20.5909 4.7428 20.2931 4.63556 19.9697 4.63548L16.957 4.63619C16.8435 4.63612 16.7511 4.54347 16.7508 4.42999C16.7508 4.3163 16.8433 4.22387 16.957 4.22379H19.969Z" fill="#ADD1C4"/>
<path d="M19.969 4.22379L19.969 3.81191L19.969 3.81191L19.969 4.22379ZM21.8227 6.07747L21.4108 6.07747V6.07747L21.8227 6.07747ZM21.8227 9.08945L22.2346 9.09007V9.08945H21.8227ZM21.6165 9.29565L21.6154 9.70753L21.6169 9.70753L21.6165 9.29565ZM21.411 9.09016L20.9991 9.09006L20.9991 9.09161L21.411 9.09016ZM21.4117 6.07747L21.8236 6.07757V6.07747L21.4117 6.07747ZM21.123 5.21427L21.4526 4.96725L21.1677 4.58711L20.8318 4.92303L21.123 5.21427ZM15.0635 10.9822L14.7718 11.273L14.7723 11.2735L15.0635 10.9822ZM20.8315 4.92274L21.1227 5.21399L21.459 4.87775L21.0782 4.59292L20.8315 4.92274ZM19.9697 4.63548L19.9698 4.2236L19.9696 4.2236L19.9697 4.63548ZM16.957 4.63619L16.9567 5.04807L16.9571 5.04807L16.957 4.63619ZM16.7508 4.42999L16.3389 4.42999L16.3389 4.43089L16.7508 4.42999ZM16.957 4.22379L16.957 3.81191L16.9567 3.81191L16.957 4.22379ZM19.969 4.22379L19.969 4.63567C20.7651 4.63575 21.4108 5.28142 21.4108 6.07747L21.8227 6.07747L22.2346 6.07747C22.2346 4.82639 21.22 3.81204 19.969 3.81191L19.969 4.22379ZM21.8227 6.07747L21.4108 6.07747L21.4108 9.08945H21.8227H22.2346L22.2346 6.07747L21.8227 6.07747ZM21.8227 9.08945L21.4108 9.08883C21.411 8.9756 21.5022 8.88387 21.6161 8.88377L21.6165 9.29565L21.6169 9.70753C21.9578 9.70721 22.234 9.43034 22.2346 9.09006L21.8227 9.08945ZM21.6165 9.29565L21.6176 8.88377C21.7313 8.88408 21.8225 8.97591 21.8229 9.0887L21.411 9.09016L20.9991 9.09161C21.0003 9.43082 21.2752 9.70661 21.6154 9.70753L21.6165 9.29565ZM21.411 9.09016L21.8229 9.09025L21.8236 6.07757L21.4117 6.07747L20.9998 6.07738L20.9991 9.09006L21.411 9.09016ZM21.4117 6.07747L21.8236 6.07747C21.8236 5.66013 21.6838 5.27573 21.4526 4.96725L21.123 5.21427L20.7934 5.46129C20.9231 5.63437 20.9998 5.847 20.9998 6.07747H21.4117ZM21.123 5.21427L20.8318 4.92303L15.0638 10.691L15.355 10.9822L15.6463 11.2735L21.4143 5.50551L21.123 5.21427ZM15.355 10.9822L15.0638 10.691C15.1442 10.6106 15.2743 10.6106 15.3548 10.691L15.0635 10.9822L14.7723 11.2735C15.0135 11.5148 15.405 11.5148 15.6463 11.2735L15.355 10.9822ZM15.0635 10.9822L15.3553 10.6915C15.4348 10.7713 15.4358 10.9009 15.3548 10.982L15.0635 10.6907L14.7723 10.3995C14.5306 10.6412 14.532 11.0323 14.7718 11.273L15.0635 10.9822ZM15.0635 10.6907L15.3548 10.982L21.1227 5.21399L20.8315 4.92274L20.5402 4.6315L14.7723 10.3995L15.0635 10.6907ZM20.8315 4.92274L21.0782 4.59292C20.7696 4.36207 20.3859 4.22371 19.9698 4.2236L19.9697 4.63548L19.9696 5.04736C20.2002 5.04742 20.4123 5.12354 20.5848 5.25256L20.8315 4.92274ZM19.9697 4.63548L19.9696 4.2236L16.9569 4.22431L16.957 4.63619L16.9571 5.04807L19.9698 5.04736L19.9697 4.63548ZM16.957 4.63619L16.9573 4.22431C17.0717 4.22439 17.1625 4.31642 17.1627 4.42909L16.7508 4.42999L16.3389 4.43089C16.3397 4.77053 16.6154 5.04784 16.9567 5.04807L16.957 4.63619ZM16.7508 4.42999L17.1627 4.42999C17.1627 4.54405 17.0706 4.63559 16.9573 4.63567L16.957 4.22379L16.9567 3.81191C16.6161 3.81214 16.3389 4.08855 16.3389 4.42999L16.7508 4.42999ZM16.957 4.22379L16.957 4.63567L19.969 4.63567L19.969 4.22379L19.969 3.81191L16.957 3.81191L16.957 4.22379Z" fill="#739C8D"/>
<path d="M5.66586 21.8228C4.64225 21.8228 3.81218 20.9928 3.81218 19.9692L3.81218 16.9572C3.81222 16.8435 3.90468 16.751 4.01838 16.751C4.13169 16.7513 4.2236 16.8432 4.22387 16.9565L4.22316 19.9692C4.22316 20.2928 4.33093 20.591 4.51113 20.8317L10.2791 15.0637C10.3594 14.9833 10.4902 14.9835 10.5706 15.0637C10.6511 15.1441 10.6511 15.2748 10.5706 15.3552L4.80266 21.1232C5.04336 21.3034 5.34148 21.4111 5.66515 21.4112L8.67783 21.4104C8.79143 21.4105 8.88392 21.503 8.88404 21.6166C8.88404 21.7303 8.79151 21.8228 8.67783 21.8228H5.66586Z" fill="#ADD1C4"/>
<path d="M5.66586 21.8228L5.66585 22.2347L5.66586 22.2347L5.66586 21.8228ZM3.81218 19.9692L4.22406 19.9692V19.9692L3.81218 19.9692ZM3.81218 16.9572L3.4003 16.957L3.4003 16.9572H3.81218ZM4.01838 16.751L4.01949 16.3391L4.0183 16.3391L4.01838 16.751ZM4.22387 16.9565L4.63575 16.9566L4.63575 16.9555L4.22387 16.9565ZM4.22316 19.9692L3.81128 19.9691L3.81128 19.9692L4.22316 19.9692ZM4.51113 20.8317L4.18143 21.0785L4.46629 21.459L4.80237 21.1229L4.51113 20.8317ZM10.5706 15.0637L10.8619 14.7724L10.8614 14.772L10.5706 15.0637ZM4.80266 21.1232L4.51142 20.8319L4.17535 21.168L4.55579 21.4529L4.80266 21.1232ZM5.66515 21.4112L5.66509 21.823L5.66525 21.823L5.66515 21.4112ZM8.67783 21.4104L8.67811 20.9986L8.67774 20.9986L8.67783 21.4104ZM8.88404 21.6166L9.29591 21.6166L9.29591 21.6162L8.88404 21.6166ZM8.67783 21.8228L8.67783 22.2347L8.67811 22.2347L8.67783 21.8228ZM5.66586 21.8228L5.66587 21.411C4.86971 21.4109 4.22406 20.7653 4.22406 19.9692L3.81218 19.9692L3.4003 19.9692C3.4003 21.2203 4.41478 22.2347 5.66585 22.2347L5.66586 21.8228ZM3.81218 19.9692L4.22406 19.9692L4.22406 16.9572H3.81218H3.4003L3.4003 19.9692L3.81218 19.9692ZM3.81218 16.9572L4.22406 16.9573C4.22402 17.0709 4.13223 17.1628 4.01846 17.1629L4.01838 16.751L4.0183 16.3391C3.67714 16.3392 3.40041 16.616 3.4003 16.957L3.81218 16.9572ZM4.01838 16.751L4.01727 17.1629C3.90411 17.1626 3.81226 17.071 3.81199 16.9574L4.22387 16.9565L4.63575 16.9555C4.63494 16.6153 4.35927 16.34 4.01949 16.3391L4.01838 16.751ZM4.22387 16.9565L3.81199 16.9564L3.81128 19.9691L4.22316 19.9692L4.63504 19.9693L4.63575 16.9566L4.22387 16.9565ZM4.22316 19.9692L3.81128 19.9692C3.81128 20.386 3.95042 20.77 4.18143 21.0785L4.51113 20.8317L4.84084 20.5848C4.71143 20.412 4.63504 20.1997 4.63504 19.9692H4.22316ZM4.51113 20.8317L4.80237 21.1229L10.5703 15.3549L10.2791 15.0637L9.98786 14.7724L4.21989 20.5404L4.51113 20.8317ZM10.2791 15.0637L10.5703 15.3549C10.4894 15.4359 10.3597 15.435 10.2799 15.3554L10.5706 15.0637L10.8614 14.772C10.6207 14.5321 10.2295 14.5308 9.98786 14.7724L10.2791 15.0637ZM10.5706 15.0637L10.2794 15.3549C10.199 15.2745 10.199 15.1444 10.2794 15.064L10.5706 15.3552L10.8619 15.6465C11.1031 15.4052 11.1031 15.0137 10.8619 14.7724L10.5706 15.0637ZM10.5706 15.3552L10.2794 15.064L4.51142 20.8319L4.80266 21.1232L5.0939 21.4144L10.8619 15.6465L10.5706 15.3552ZM4.80266 21.1232L4.55579 21.4529C4.86439 21.6839 5.24835 21.823 5.66509 21.823L5.66515 21.4112L5.66521 20.9993C5.4346 20.9992 5.22233 20.9229 5.04953 20.7935L4.80266 21.1232ZM5.66515 21.4112L5.66525 21.823L8.67793 21.8223L8.67783 21.4104L8.67774 20.9986L5.66505 20.9993L5.66515 21.4112ZM8.67783 21.4104L8.67756 21.8223C8.56376 21.8222 8.47227 21.7305 8.47216 21.6171L8.88404 21.6166L9.29591 21.6162C9.29557 21.2756 9.01911 20.9988 8.67811 20.9986L8.67783 21.4104ZM8.88404 21.6166L8.47216 21.6166C8.47216 21.5026 8.56425 21.411 8.67756 21.411L8.67783 21.8228L8.67811 22.2347C9.01876 22.2345 9.29591 21.9581 9.29591 21.6166L8.88404 21.6166ZM8.67783 21.8228L8.67783 21.411L5.66586 21.411L5.66586 21.8228L5.66586 22.2347L8.67783 22.2347L8.67783 21.8228Z" fill="#739C8D"/>
</svg>
