<svg width="26" height="26" viewBox="0 0 26 26" fill="none" xmlns="http://www.w3.org/2000/svg">
<path d="M0.643564 8.88119V2.29109C0.643564 1.38119 1.38119 0.643564 2.29109 0.643564H8.88119" stroke="#ADD1C4" stroke-width="1.25" stroke-linecap="round"/>
<path d="M17.1188 0.643564L23.7089 0.643564C24.6188 0.643564 25.3564 1.38119 25.3564 2.29109L25.3564 8.88119" stroke="#ADD1C4" stroke-width="1.25" stroke-linecap="round"/>
<path d="M8.88119 25.3564L2.29109 25.3564C1.38119 25.3564 0.643564 24.6188 0.643564 23.7089L0.643564 17.1188" stroke="#ADD1C4" stroke-width="1.25" stroke-linecap="round"/>
<path d="M25.3564 17.1188L25.3564 23.7089C25.3564 24.6188 24.6188 25.3564 23.7089 25.3564L17.1188 25.3564" stroke="#ADD1C4" stroke-width="1.25" stroke-linecap="round"/>
<path d="M9.5 9.5L4.5 4.5M4.5 4.5H8.5M4.5 4.5V8.5" stroke="#ADD1C4" stroke-width="1.25" stroke-linecap="round" stroke-linejoin="round"/>
<path d="M16.5 9.5L21.5 4.5M21.5 4.5H17.5M21.5 4.5V8.5" stroke="#ADD1C4" stroke-width="1.25" stroke-linecap="round" stroke-linejoin="round"/>
<path d="M9.5 16.5L4.5 21.5M4.5 21.5H8.5M4.5 21.5V17.5" stroke="#ADD1C4" stroke-width="1.25" stroke-linecap="round" stroke-linejoin="round"/>
<path d="M16.5 16.5L21.5 21.5M21.5 21.5H17.5M21.5 21.5V17.5" stroke="#ADD1C4" stroke-width="1.25" stroke-linecap="round" stroke-linejoin="round"/>
</svg>
