<svg width="103" height="30" viewBox="0 0 103 30" fill="none" xmlns="http://www.w3.org/2000/svg">
<path d="M10.127 4.87695L17.999 9.42188L18.1436 9.50488L18.2275 9.65039L18.71 10.4854C18.7925 10.6283 18.81 10.7903 18.7754 10.9395L18.793 10.957V19.6855L18.71 19.8301L18.292 20.5537L18.208 20.6982L18.0635 20.7822L10.5439 25.123L10.3994 25.207H8.77148V25.1787L8.68652 25.1338L0.814453 20.957L0.65625 20.873L0.566406 20.7178L0.0839844 19.8818L0 19.7373V10.335L0.114258 10.2207C0.128107 10.1688 0.145708 10.1171 0.173828 10.0684C0.261177 9.91714 0.401915 9.81579 0.558594 9.77539L1.01855 9.31738L1.07617 9.25879L1.14746 9.21777L8.66699 4.87695L8.81152 4.79297H9.98242L10.127 4.87695ZM1.25 19.4023L1.55859 19.9375L8.77148 23.7637V15.7539L1.25 11.4111V19.4023ZM1.8457 10.2568L1.81055 10.292L9.55762 14.7637L9.79004 14.5332L9.85156 14.4707L9.92871 14.4287L17.1875 10.3955L9.64746 6.04297H9.14648L1.8457 10.2568Z" fill="#88A4A0"/>
<path d="M30.495 23V7.523H38.664L40.848 9.728V15.041L38.664 17.246H32.406V23H30.495ZM32.406 15.545H37.803L38.937 14.39V10.379L37.803 9.203L32.406 9.224V15.545ZM42.3674 23V12.017H44.2154V13.991L46.1264 12.017H48.9404V13.865H46.2104L44.2154 15.923V23H42.3674ZM51.786 23L49.581 20.795V14.222L51.786 12.017H56.994L59.199 14.222V20.795L56.994 23H51.786ZM52.584 21.53H56.196L57.351 20.375L57.33 14.642L56.196 13.487H52.584L51.429 14.642V20.375L52.584 21.53ZM63.3943 23L61.1893 20.795V14.222L63.3943 12.017H67.4263L69.1273 13.76V7.523H70.9753V23H69.1273V21.278L67.4263 23H63.3943ZM66.9643 21.53L69.1273 19.346V15.692L66.9643 13.487H64.1923L63.0373 14.642V20.375L64.1923 21.53H66.9643ZM75.6412 23L73.4572 20.795V12.017H75.3052L75.2842 20.354L76.4182 21.53H79.1482L81.3112 19.367V12.017H83.1592V23H81.3112V21.299L79.6312 23H75.6412ZM87.6977 23L85.4927 20.795V14.222L87.6977 12.017H92.7167L94.6487 13.928V15.671H92.8007V14.537L91.7507 13.487H88.4957L87.3407 14.642V20.291L88.4957 21.467H94.5437V23H87.6977ZM98.6931 23L96.7611 21.089V13.487H95.6061V12.017H96.8031L97.2651 9.203H98.6091V12.017H100.94V13.487H98.6091V20.438L99.5961 21.467H101.423V23H98.6931Z" fill="black"/>
</svg>
