<svg width="136" height="30" viewBox="0 0 136 30" fill="none" xmlns="http://www.w3.org/2000/svg">
<path d="M15.0254 5.2041L16.0537 6.27148L16.2402 6.46484V18.2412L16.7031 18.2881C17.3159 18.3501 17.7822 18.8665 17.7822 19.4824V20.4619C17.7822 20.666 17.73 20.8666 17.6309 21.0449L17.1787 21.8594C17.0709 22.053 16.9109 22.2136 16.7178 22.3223L16.0225 22.7129C15.9293 22.7653 15.8294 22.8041 15.7266 22.8301V24.0693L15.54 24.2627L15.0254 24.7959L14.8291 25H1.92578L1.72949 24.7959L0.186523 23.1963L0 23.002V8.06445L0.186523 7.87109L1.21484 6.80371L1.41211 6.59961H2.57031V6.46484L2.75684 6.27148L3.78516 5.2041L3.98242 5H14.8291L15.0254 5.2041ZM1.33398 8.60156V22.4639L2.49316 23.667H14.2617L14.3926 23.5312V22.8555L5.86719 22.0557L5.02832 22.29C4.92391 22.3191 4.81539 22.3339 4.70703 22.334H4.06348C3.51642 22.3339 3.03824 21.9632 2.90137 21.4336L2.6084 20.2988C2.58318 20.201 2.57032 20.1001 2.57031 19.999V7.93359H1.97852L1.33398 8.60156ZM7.20508 19.9287C7.20503 20.1327 7.15289 20.3334 7.05371 20.5117L6.88574 20.8125L14.5771 21.5332H15.4004L16.0303 21.1787L16.4492 20.4268V19.6025L7.20508 18.6709V19.9287ZM3.9043 7.00195V19.9844L4.16602 21H4.68848L5.35938 20.8135L5.87207 19.8926V18.5234C5.87207 17.8574 6.41158 17.3279 7.06152 17.3232L7.19238 17.3291L14.9072 18.1064V7.00195L14.2627 6.33398H4.54883L3.9043 7.00195ZM12.4053 14.1494C12.6536 14.1495 12.8553 14.3513 12.8555 14.5996C12.8555 14.8481 12.6537 15.0497 12.4053 15.0498H6.40527C6.15675 15.0498 5.95508 14.8481 5.95508 14.5996C5.95529 14.3513 6.15688 14.1494 6.40527 14.1494H12.4053ZM12.4053 11.3496C12.6536 11.3497 12.8554 11.5514 12.8555 11.7998C12.8555 12.0483 12.6537 12.2499 12.4053 12.25H6.40527C6.15675 12.25 5.95508 12.0483 5.95508 11.7998C5.95518 11.5514 6.15681 11.3496 6.40527 11.3496H12.4053ZM12.4053 8.5498C12.6537 8.54994 12.8555 8.75155 12.8555 9C12.8555 9.24845 12.6537 9.45006 12.4053 9.4502H6.40527C6.15675 9.4502 5.95508 9.24853 5.95508 9C5.95508 8.75147 6.15675 8.5498 6.40527 8.5498H12.4053Z" fill="#88A4A0"/>
<path d="M31.8562 23L28.0552 7.523H30.0712L33.1162 21.173H33.5782L36.4552 7.523H38.1982L41.0752 21.173H41.5372L44.5822 7.523H46.5982L42.7972 23H39.7942L37.3162 11.576L34.8592 23H31.8562ZM47.757 23V7.523H49.605V13.76L51.285 12.017H55.338L57.522 14.222V23H55.674V14.684L54.561 13.487H51.768L49.605 15.692V23H47.757ZM60.0215 10.82V8.342H61.8695V10.82H60.0215ZM60.0215 23V12.017H61.8695V23H60.0215ZM66.51 23L64.578 21.089V13.487H63.423V12.017H64.62L65.082 9.203H66.426V12.017H68.757V13.487H66.426V20.438L67.413 21.467H69.24V23H66.51ZM72.5992 23L70.3942 20.795V14.222L72.5992 12.017H77.4922L79.6972 14.222V18.191H72.2422V20.312L73.3972 21.467H79.5082V23H72.5992ZM72.2422 16.721H77.8492V14.642L76.6942 13.487H73.3972L72.2422 14.642V16.721ZM82.0493 26.927V12.017H83.8973V13.76L85.5773 12.017H89.6303L91.8143 14.222V20.795L89.6303 23H85.5773L83.8973 21.278V26.927H82.0493ZM86.0603 21.53H88.8323L89.9663 20.375V14.642L88.8323 13.487H86.0603L83.8973 15.692V19.346L86.0603 21.53ZM95.3673 23L93.1833 20.795V18.296L95.3673 16.091H100.953V14.726L99.8193 13.571H94.6113V12.017H100.617L102.801 14.222V23H100.953V21.299L99.2523 23H95.3673ZM96.1863 21.53H98.7903L100.953 19.388V17.54L96.1863 17.561L95.0313 18.695V20.375L96.1863 21.53ZM105.307 26.927V12.017H107.155V13.76L108.835 12.017H112.888L115.072 14.222V20.795L112.888 23H108.835L107.155 21.278V26.927H105.307ZM109.318 21.53H112.09L113.224 20.375V14.642L112.09 13.487H109.318L107.155 15.692V19.346L109.318 21.53ZM119.278 23L117.073 20.795V14.222L119.278 12.017H124.171L126.376 14.222V18.191H118.921V20.312L120.076 21.467H126.187V23H119.278ZM118.921 16.721H124.528V14.642L123.373 13.487H120.076L118.921 14.642V16.721ZM128.728 23V12.017H130.576V13.991L132.487 12.017H135.301V13.865H132.571L130.576 15.923V23H128.728Z" fill="black"/>
</svg>
